<svg version="1.2" xmlns="http://www.w3.org/2000/svg" viewBox="0 0 600 200" width="600" height="200">
	<style>
		.s0 { fill: #383838 } 
	</style>
	<g id="Layer 1">
		<path id="anoto." class="s0" aria-label="anoto."  d="m69.3 151.7q-7.9 0-14.5-3.3-6.7-3.1-10.7-9.3-4.1-6.4-4.1-14.4 0-13.9 10.8-21.4 11-7.6 30.5-7.6h21.4v-1.3q0-11.3-5.7-16.6-5.5-5.3-18.1-5.3-6.7 0-12 1.1-5.3 1.1-11.7 3.2-0.7 0.2-1.5 0.4-0.5 0-0.9 0-2.5 0-4.7-2-2-2.2-2-5.1 0-4.9 4.9-7 15-6.3 30.7-6.3 12.2 0 21.2 5.1 8.4 4.9 12.4 12.9 4 8.1 4 17.4v50.4q0 3.5-2.6 5.8-2.5 2.4-5.8 2.4-3.5 0-5.9-2.4-2.3-2.5-2.3-5.8v-4.4q-13 13.5-33.4 13.5zm6-14.6q8 0 15.1-3.8 7.3-3.9 12.3-9.5v-14.8h-19.4q-26.6 0-26.6 14 0 6.3 4.2 10.3 4.3 3.8 14.4 3.8zm78.8 13.7q-3.3 0-5.8-2.4-2.4-2.5-2.4-5.8v-76.5q0-3.3 2.4-5.9 2.3-2.5 5.8-2.5 3.5 0 5.8 2.5 2.6 2.6 2.6 5.9v6.7q6.9-7.5 14.6-11.7 7.9-4.3 18.4-4.3 9.9 0 17.2 4.7 7.1 4.6 11 12.6 3.8 8 3.8 17.9v50.6q0 3.5-2.6 5.8-2.3 2.4-5.6 2.4-3.5 0-5.9-2.4-2.3-2.5-2.3-5.8v-49q0-21.5-19.6-21.5-8.9 0-15.9 4.6-6.7 4.5-13.1 12.4v53.5q0 3.5-2.6 5.8-2.3 2.4-5.8 2.4zm141.1 0.9q-13.5 0-24.1-5.8-10.4-6.1-16-16.8-5.7-11-5.7-24.9 0-13.7 5.7-24.8 5.8-11 16.2-16.8 10.4-5.8 23.9-5.8 13.4 0 24 5.8 10.5 6 16.2 17 5.7 10.8 5.7 24.6 0 13.9-5.7 24.7-5.8 11.1-16.2 17-10.5 5.8-24 5.8zm0-15.1q7.5 0 14.1-3.5 6.6-3.3 10.8-10.6 4.4-7.3 4.4-18.4 0-11-4.2-18.3-8.6-13.9-25.1-13.9-7.5 0-14 3.3-6.6 3.3-11 10.6-4.2 7.1-4.2 18.3 0 11.1 4.2 18.4 4 6.8 10.4 10.4 6.6 3.7 14.6 3.7zm99.3 15.1q-26.3 0-26.3-23.7v-54.3h-8.8q-7.1 0-7.1-7.1 0-7.1 7.1-7.1h8.8v-12.6q0-4.2 2.2-6.2 2.3-2.2 6.2-2.2 8.2 0 8.2 8.4v12.6h20.1q3.1 0 5.1 2 2 2 2 5.1 0 2.8-2 4.9-2 2.2-5.1 2.2h-20.1v52.8q0 6.8 3.3 8.8 3.3 1.8 8.2 1.8 3.6 0 7.1-1.1 0.4 0 0.6-0.2 0.7-0.2 1.4-0.2 0.8-0.1 1.5-0.1 2.5 0 4.6 1.8 2.1 1.8 2.1 4.7 0 4.1-4.3 6.4-6.8 3.3-14.8 3.3zm74.7 0q-13.5 0-24.1-5.8-10.4-6.1-16-16.8-5.7-11-5.7-24.9 0-13.7 5.7-24.8 5.8-11 16.2-16.8 10.4-5.8 23.9-5.8 13.4 0 24 5.8 10.5 6 16.2 17 5.7 10.8 5.7 24.6 0 13.9-5.7 24.7-5.8 11.1-16.2 17-10.5 5.8-24 5.8zm0-15.1q7.5 0 14.1-3.5 6.6-3.3 10.8-10.6 4.4-7.3 4.4-18.4 0-11-4.2-18.3-8.6-13.9-25.1-13.9-7.5 0-14 3.3-6.6 3.3-11 10.6-4.2 7.1-4.2 18.3 0 11.1 4.2 18.4 4 6.8 10.4 10.4 6.6 3.7 14.6 3.7zm76.9 13.8h-1.8q-4 0-7.1-2.9-3.1-3.1-3.1-7.3v-1.1q0-4.2 3.1-7.1 3.1-2.9 7.1-2.9h1.8q4.2 0 7.1 2.9 3.1 2.9 3.1 7.1v1.1q0 4.2-3.1 7.3-2.9 2.9-7.1 2.9z"/>
	</g>
</svg>