<?xml version="1.0" encoding="UTF-8" standalone="no"?><!DOCTYPE svg PUBLIC "-//W3C//DTD SVG 1.1//EN" "http://www.w3.org/Graphics/SVG/1.1/DTD/svg11.dtd"><svg width="100%" height="100%" viewBox="0 0 1024 1024" version="1.1" xmlns="http://www.w3.org/2000/svg" xmlns:xlink="http://www.w3.org/1999/xlink" xml:space="preserve" xmlns:serif="http://www.serif.com/" style="fill-rule:evenodd;clip-rule:evenodd;stroke-linejoin:round;stroke-miterlimit:2;"><g id="Fundo"><path d="M955.798,1024.378c-0,-0.105 0.597,-1.185 -0.007,-2.789c-5.632,-14.962 -8.592,-24.829 -16.483,-44.792c-1.601,-4.05 -1.477,-4.087 -4.762,-12.177c-2.736,-6.737 -2.443,-6.825 -5.235,-13.553c-1.157,-2.789 -0.944,-2.862 -2.225,-5.6c-0.78,-1.668 -0.517,-1.773 -8.952,-21.21c-6.073,-13.995 -5.911,-14.057 -6.443,-15.272c-0.002,-0.005 -8.397,-17.919 -11.446,-24.946c-3.89,-8.963 -13.728,-27.225 -18.982,-37.995c-6.033,-12.367 -16.867,-30.466 -18.288,-33.317c-0.357,-0.715 -0.517,-0.62 -4.898,-8.708c-3.818,-7.048 -28.853,-47.02 -36.565,-57.091c-2.992,-3.907 -4.086,-5.024 -5.803,-7.452c0.945,-0.749 0.574,-1.065 1.51,-1.808c0.089,-0.071 0.097,-0.047 1.347,-0.459c6.186,-2.041 11.317,-4.145 12.287,-4.543c5.761,-2.363 8.184,-2.97 8.315,-3.134c0.023,-0.029 0.124,-1.51 0.106,-1.556c-0.037,-0.091 -4.245,-3.355 -7.664,-6.722c-5.963,-5.871 -6.198,-5.629 -11.438,-12.12c-16.905,-20.941 -24.004,-46.855 -26.398,-48.342c-1.869,-1.161 -10.464,1.35 -13.434,1.816c-10.938,1.719 -21.651,4.094 -22.481,4.47c-0.279,0.127 -0.453,0.429 -0.732,0.556c-0.618,-0.792 -0.842,-0.63 -3.352,-4.778c-5.429,-8.971 -4.909,-10.585 -8.017,-10.001c-0.033,0.006 -5.071,1.336 -5.834,1.956c-1.767,1.434 0.235,3.281 1.478,5.876c2.207,4.606 2.106,4.634 4.198,9.303c-0.462,-0.053 -0.423,-0.397 -2.052,-0.235c-1.128,0.112 -1.114,0.093 -2.253,0.188c-0.474,-0.337 -0.845,-0.806 -1.319,-1.143c-0.252,-0.179 -3.451,-1.321 -6.645,-3.337c-6.384,-4.029 -23.95,-12.361 -40.216,-18.87c-28.644,-11.462 -56.317,-17.06 -61.331,-18.074c-13.136,-2.657 -18.36,-3.131 -24.479,-3.982c-9.879,-1.374 -9.883,-1.195 -9.976,-1.204c-4.642,-14.844 -12.72,-63.696 -14.649,-83.247c-0.302,-3.058 0.483,-3.476 1.183,-4.317c0.523,-0.354 4.339,-2.418 7.806,-6.798c2.498,-3.156 5.759,-7.002 10.201,-14.449c1.188,-1.992 1.151,-1.99 1.255,-2.16c2.404,-3.943 6.594,-12.536 7.112,-13.759c4.287,-10.103 6.883,-21.352 7.322,-23.252c2.428,-10.522 2.224,-10.934 11.759,-21.519c1.997,-2.217 1.958,-2.228 2.618,-3.088c0.116,-0.134 0.331,-0.155 0.447,-0.29c0.223,-0.257 0.275,-0.659 0.55,-0.859c0.27,-0.196 0.654,-0.136 0.969,-0.243c4.428,-1.504 4.532,-0.976 9.12,-1.827c16.313,-3.025 16.23,-3.307 38.036,-7.561c16.528,-3.225 16.556,-3.022 17.965,-3.415c2.053,-0.571 0.828,-2.88 -0.689,-5.675c-2.542,-4.684 -9.307,-18.911 -11.47,-23.866c-0.418,-0.957 -0.427,-0.941 -5.324,-11.912c-6.393,-14.323 -16.837,-45.3 -18.715,-53.798c-1.116,-5.049 -1.294,-4.982 -2.393,-10.033c-0.069,-0.317 -0.692,-3.181 -1.242,-3.863c-1.195,-1.48 -2.026,-1.252 -12.833,0.513c-28.943,4.726 -28.905,5.23 -33.493,5.766c-0.283,0.033 -2.985,0.348 -3.517,0.578c-0.282,0.122 -0.461,0.422 -0.742,0.544c-1.088,-1.437 -1.579,-1.164 -2.708,-4.66c-0.386,-1.195 -0.363,-1.184 -0.794,-2.351c-3.223,-8.718 -3.935,-11.854 -5.705,-12.099c-1.218,-0.168 -8.486,1.296 -10.13,1.731c-3.198,0.846 -2.723,2.118 -0.531,6.826c3.388,7.28 2.903,7.471 3.298,8.044c0.14,0.204 0.544,0.083 0.685,0.287l1.117,0.273l0.12,1.675l-1.118,1.037c-3.212,-2.043 -3.729,-1.096 -9.282,-3.927c-17.277,-8.807 -22.665,-16.5 -37.994,-24.599c-8.115,-4.288 -10.086,-4.999 -18.7,-7.368c-9.837,-2.705 -22.371,-1.449 -30.085,1.674c-13.146,5.322 -13.871,7.308 -24.722,6.925c-0.036,-0.001 -2.004,-0.021 -4.486,-0.11c-8.369,-0.299 -21.723,-4.834 -37.886,4.152c-15.543,8.642 -14.648,18.588 -15.15,20.974c-1.334,6.338 -11.009,4.34 -21.951,17.871c-4.7,5.812 -9.064,20.829 -1.21,36.011c3.739,7.228 5.355,6.461 7.456,14.302l-0.859,1.204c-0.679,2.076 -0.657,2.07 -0.733,2.243c-11.3,25.348 -26.498,44.433 -30.53,50.02c-7.206,9.986 -7.983,9.394 -8.423,10.368c-0.13,0.287 -0.078,0.668 0.079,0.941c0.195,0.34 0.513,0.68 0.896,0.761c0.119,0.025 5.078,-1.727 5.517,-1.883c5.17,-1.827 34.274,-10.538 34.776,-10.68c13.418,-3.787 13.273,-4.226 14.468,-4.419c0.289,-0.047 0.59,0.077 0.878,0.024c0.414,-0.076 0.782,-0.329 1.196,-0.405c0.035,1.649 0.087,1.628 -0.104,3.286c-1.08,9.413 -1.317,20.555 -1.355,22.346c-0.009,0.401 -1.151,26.417 3.332,51.492c1.487,8.315 4.985,29.614 15.231,50.072c8.597,17.167 22.637,19.732 41.088,17.868c5.574,-0.563 5.568,-0.454 11.081,-1.532c7.647,-1.495 13.398,-3.761 14.523,-4.205c1.707,-0.673 1.691,-0.917 4.047,-0.677c0.592,5.418 0.452,5.405 1.276,19.997c0.072,1.697 0.63,14.846 1.228,21.193c0.091,0.964 0.228,2.224 2.386,2.646c0.79,0.155 15.51,1.319 16.884,1.373c22.481,0.885 22.545,0.568 33.476,0.109c11.779,-0.495 11.736,-0.881 23.495,-1.59c1.735,-0.105 1.66,-0.423 2.15,-0.495c0.307,-0.045 0.617,0.161 0.925,0.116c-0.194,1.168 -0.159,1.16 -0.388,2.333c-2.604,13.358 -13.959,98.608 -14.679,105.008c-1.761,15.651 -2.051,15.589 -3.869,31.216c-0.156,1.343 -0.07,1.346 -1.798,16.807c-0.446,3.992 -5.119,50.4 -5.365,54.747c-0.524,9.235 -2.59,29.934 -3.092,37.921c-1.371,21.806 -1.655,21.773 -2.688,43.613c-0.106,2.234 -1.303,27.545 -1.326,27.92c-0.717,11.693 -1.456,45.485 -1.456,45.8c-0.026,18.89 -0.543,21.025 0.284,27.37l-109.483,0c0.247,-1.938 0.24,-1.924 0.437,-3.874c1.36,-13.435 1.407,-13.416 1.502,-14.585c0.394,-4.794 5.545,-45.351 5.762,-46.909c0.684,-4.911 4.25,-31.887 5.272,-38.041c1.831,-11.026 4.358,-30.347 4.672,-32.363c2.399,-15.385 2.202,-15.393 2.43,-16.726c1.627,-9.507 1.508,-9.509 2.924,-19.057c0.649,-4.376 7.789,-52.533 8.15,-54.692c2.878,-17.205 2.529,-17.249 3.217,-21.252c3.513,-20.442 4.762,-30.807 6.733,-42.445c0.754,-4.452 0.633,-4.456 1.349,-8.899c3.82,-23.71 3.919,-23.67 4.204,-25.737c0.913,-6.622 6.805,-43.062 7.411,-46.805c2.174,-13.442 2.411,-13.382 4.299,-26.861c0.036,-0.259 0.387,-2.763 -1.422,-2.948c-0.68,-0.069 -18.035,3.109 -18.894,3.271c-27.993,5.263 -54.373,14.224 -60.297,16.636c-11.818,4.813 -11.883,4.613 -23.359,10.24c-0.356,-0.674 -1.343,-0.856 -1.698,-1.53c-0.338,-0.641 3.007,-4.26 1.661,-6.846c-0.457,-0.877 -10.996,-2.865 -11.307,-2.844c-1.879,0.125 -2.697,2.907 -3.741,5.03c-0.439,0.892 -4.034,8.204 -5.719,11.039c-0.11,0.186 -0.143,0.138 -1.941,1.875c-2.209,-0.685 -10.359,-3.212 -27.849,-7.742c-19.514,-5.054 -22.28,-6.442 -23.495,-3.956c-0.511,1.046 -0.147,1.162 -5.022,13.655c-0.222,0.568 -2.853,8.209 -4.93,13.225c-2.54,6.137 -7.564,19.987 -19.604,39.409c-3.485,5.622 -8.789,14.475 -15.196,23.014c-7.258,9.674 -7.125,9.771 -9.677,12.583c-3.119,3.438 0.028,3.637 4.454,5.01c2.854,0.886 4.314,0.926 4.436,1.076c0.509,0.627 0.944,1.312 1.453,1.939c-1.188,2 -6.026,9.658 -6.554,10.495c-10.856,17.184 -14.556,24.428 -19.246,31.824c-2.082,3.283 -21.586,39.777 -23.678,44.538c-3.177,7.232 -11.274,21.823 -14.478,29.069c-1.207,2.729 -17.528,36.293 -21.773,45.552c-13.066,28.5 -15.074,32.253 -16.21,34.883c-1.479,3.425 -4.49,10.106 -4.885,10.982c-12.473,27.675 -12.467,27.665 -12.726,28.231c-5.157,11.262 -10.319,23.768 -11.598,26.624c-1.373,3.067 -0.943,3.173 -1.119,3.908l809.947,0Z" style="fill:#fdfdfe;"/><path d="M681.041,651.133l-49.559,411.928l-195.637,-23.537l49.559,-411.928l195.637,23.537Z" style="fill:#ebebeb;"/><rect x="499.134" y="625.059" width="93.704" height="16.099" style="fill:#ebebeb;"/><path d="M955.798,1024.378l-172.044,0c-0.244,-0.583 -0.645,-1.092 -0.889,-1.675c-0.508,-1.215 -3.301,-10.275 -3.578,-11.172c-4.271,-13.85 -4.796,-13.677 -7.076,-22.247c-1.053,-3.959 -1.441,-3.776 -1.548,-3.941c-0.131,-0.203 -0.072,-0.564 -0.292,-0.664c-1.088,-0.495 -1.349,-0.226 -1.542,0.967c-0.12,0.74 0.685,6.301 0.764,6.847c1.785,12.33 1.231,12.389 2.832,21.305c1.801,10.028 1.267,10.083 1.273,10.581l-222.317,-0c-0.827,-6.345 -0.31,-8.481 -0.284,-27.37c0,-0.314 0.739,-34.107 1.456,-45.8c0.023,-0.375 1.22,-25.686 1.326,-27.92c1.033,-21.84 1.317,-21.807 2.688,-43.613c0.502,-7.988 2.568,-28.686 3.092,-37.921c0.247,-4.347 4.919,-50.755 5.365,-54.747c1.728,-15.461 1.642,-15.464 1.798,-16.807c1.819,-15.627 2.108,-15.565 3.869,-31.216c0.72,-6.4 12.074,-91.65 14.679,-105.008c0.229,-1.173 0.194,-1.165 0.388,-2.333c0.413,-2.714 0.717,-6.675 1.555,-7.609c1.463,-1.631 3.246,-0.355 10.014,-0.701c0.093,0.009 0.097,-0.17 9.976,1.204c6.118,0.851 11.343,1.325 24.479,3.982c5.014,1.014 32.686,6.612 61.331,18.074c16.267,6.509 33.832,14.841 40.216,18.87c3.195,2.016 6.393,3.158 6.645,3.337c0.474,0.337 0.845,0.806 1.319,1.143c-0.445,0.18 -0.433,-0.3 -0.869,-0.124c-0.38,0.153 -0.032,0.437 -0.393,0.633c-0.306,0.167 -0.689,0.104 -1.034,0.144c-8.607,0.998 -14.841,2.829 -21.106,3.854c-8.229,1.346 -9.909,1.525 -10.057,3.053c-0.122,1.269 6.454,17.331 7.063,18.819c6.157,15.039 7.012,15.695 7.591,16.833c0.452,0.89 5.527,10.875 5.67,11.115c6.56,11.06 7.877,11.946 10.607,14.977c0.508,0.565 4.33,4.815 6.928,6.507c8.423,5.485 15.532,6.449 23.546,5.866c13.942,-1.384 41.983,-11.905 43.646,-12.407c2.015,-0.608 2.456,0.159 2.822,0.264c1.718,2.428 2.812,3.545 5.803,7.452c7.712,10.071 32.747,50.043 36.565,57.091c4.381,8.088 4.542,7.993 4.898,8.708c1.421,2.851 12.255,20.95 18.288,33.317c5.254,10.77 15.092,29.032 18.982,37.995c3.049,7.027 11.444,24.94 11.446,24.946c0.531,1.215 0.37,1.277 6.443,15.272c8.435,19.438 8.171,19.542 8.952,21.21c1.281,2.738 1.068,2.811 2.225,5.6c2.792,6.729 2.499,6.816 5.235,13.553c3.285,8.089 3.161,8.126 4.762,12.177c7.891,19.962 10.851,29.83 16.483,44.792c0.604,1.605 0.007,2.684 0.007,2.789Z" style="fill:#4359f0;"/><rect x="452.027" y="678.841" width="48.287" height="28.787" style="fill:#ebebeb;"/><path d="M441.9,1024.378l-146.349,0c0.002,-0.56 -0.13,-1.115 -0.129,-1.675c0.006,-1.92 0.517,-7.151 0.578,-7.772c0.075,-0.766 2.736,-20.205 3.396,-24.544c2.296,-15.102 3.981,-22.87 4.321,-25.728c1.077,-9.033 1.289,-8.986 3.04,-17.923l-0.076,-0.796c20.498,2.152 48.184,5.086 79.365,4.358c0.886,-0.021 16.973,-0.72 18.934,-1.455c1.43,-0.536 3.805,-4.499 7.112,-10.866c1.502,-2.891 7.32,-14.092 14.296,-38.126c3.558,-12.259 8.805,-36.085 9.5,-39.239c2.568,-11.663 3.447,-16.367 4.744,-21.166c0.048,-0.177 0.494,-1.829 0.424,-2.251c-0.37,-2.219 -1.523,-1.18 -25.993,-2.823c-6.55,-0.44 -23.63,-1.3 -25.685,-1.403c-1.239,-0.062 -1.188,-0.245 -2.078,-0.429c-0.018,-0.292 -0.182,-0.563 -0.2,-0.856c-0.141,-2.334 5.187,-14.133 4.886,-15.754c-0.2,-1.08 -0.818,-1.394 -10.421,-1.992c-4.29,-0.267 -3.033,2.025 -8.325,15.307c-0.776,1.948 -1.487,1.905 -1.755,2.247c-0.363,0.001 -0.718,0.133 -1.081,0.133c-3.752,0.007 -47.306,-2.888 -49.217,-2.55c-0.19,0.034 -1.481,0.262 -1.813,1.589c-0.619,2.474 -2.829,17.396 -9.184,40.136c-2.626,9.398 -2.454,9.424 -5.088,18.824c-1.782,6.362 -7.931,24.149 -11.026,30.127c-1.588,3.068 -7.415,16.024 -10.33,20.57c-0.093,0.144 -0.977,1.524 -1.002,1.894c-0.138,2.043 0.761,1.636 2.803,1.81c5.283,0.45 5.27,0.371 16.711,1.521c-0.114,0.422 -0.44,0.767 -0.554,1.189c-0.066,0.246 0.489,0.355 -1.918,8.872c-2.067,7.315 -2.205,7.253 -4.219,14.593c-0.269,0.982 -0.111,1.007 -3.02,12.368c-0.345,1.347 -3.609,13.651 -7.134,31.181c-0.789,3.923 -1.317,7.201 -1.418,7.829c-0.28,1.736 -0.44,1.678 -0.734,2.799l-137.412,0c0.176,-0.735 -0.254,-0.841 1.119,-3.908c1.279,-2.856 6.441,-15.361 11.598,-26.624c0.259,-0.566 0.253,-0.557 12.726,-28.231c0.395,-0.877 3.406,-7.557 4.885,-10.982c1.135,-2.63 3.143,-6.383 16.21,-34.883c4.245,-9.259 20.566,-42.823 21.773,-45.552c3.204,-7.247 11.301,-21.838 14.478,-29.069c2.091,-4.761 21.596,-41.255 23.678,-44.538c4.69,-7.396 8.389,-14.64 19.246,-31.824c0.529,-0.837 5.367,-8.495 6.554,-10.495c0.43,-0.176 1.052,-1.068 2.958,-0.5c8.997,2.681 36.311,11.593 82.597,23.723c21.912,5.742 22.497,6.136 24.419,4.195c1.541,-1.557 7.605,-9.953 8.242,-10.836c5.539,-7.669 20.301,-33.329 28.759,-53.808c1.704,-4.125 1.962,-3.998 6.657,-15.66c4.866,-12.084 6.104,-17.882 8.743,-24.649c0.929,-2.382 1.42,-3.095 -0.929,-4.074c-3.637,-1.515 -43.803,-10.922 -50.009,-12.842c-0.099,-0.699 -0.791,-0.804 0.095,-2.983c1.925,-4.737 3.156,-5.525 6.642,-7.506c11.477,-5.627 11.541,-5.427 23.359,-10.24c5.924,-2.413 32.304,-11.374 60.297,-16.636c0.859,-0.161 18.214,-3.34 18.894,-3.271c1.809,0.184 1.458,2.688 1.422,2.948c-1.888,13.479 -2.126,13.419 -4.299,26.861c-0.605,3.742 -6.498,40.183 -7.411,46.805c-0.285,2.067 -0.384,2.026 -4.204,25.737c-0.716,4.443 -0.595,4.447 -1.349,8.899c-1.971,11.638 -3.22,22.003 -6.733,42.445c-0.688,4.004 -0.338,4.047 -3.217,21.252c-0.361,2.158 -7.501,50.316 -8.15,54.692c-1.416,9.547 -1.297,9.55 -2.924,19.057c-0.228,1.333 -0.031,1.341 -2.43,16.726c-0.314,2.016 -2.841,21.337 -4.672,32.363c-1.022,6.154 -4.589,33.13 -5.272,38.041c-0.217,1.558 -5.369,42.115 -5.762,46.909c-0.096,1.169 -0.143,1.151 -1.502,14.585c-0.197,1.95 -0.19,1.936 -0.437,3.874Z" style="fill:#3143d7;"/><path d="M417.084,437.843c0.364,-0.307 0.904,-0.352 1.268,-0.659c1.055,-0.89 -0.289,-1.429 4.322,-16.708c1.226,-4.062 1.582,-4.562 5.814,-4.653c19.989,-0.429 22.955,0.347 72.623,-3.068c21.829,-1.501 33.505,-2.338 38.806,3.591c4.57,5.111 1.562,26.947 10.641,40.888c3.607,5.538 7.621,10.214 9.649,11.512c6.182,3.955 6.816,-1.749 11.853,-9.441c0.218,-0.332 2.064,-3.152 2.89,-4.036c0.372,-0.398 0.824,-0.718 1.18,-1.131c0.307,-0.356 0.49,-0.807 0.797,-1.163c0.191,0.305 -0.233,0.774 -0.042,1.08c0.315,0.504 1.013,0.653 1.404,1.101c0.113,0.129 1.133,3.145 3.232,2.946c0.175,-0.017 13.049,-2.533 18.889,-3.111c0.173,0.426 0.119,0.922 0.292,1.347c0.3,0.737 0.755,1.401 1.114,2.111c3.89,7.679 1.799,21.324 0.997,24.672c-2.891,12.065 -6.323,16.857 -9.156,19.938c-7.037,7.654 -11.748,6.251 -12.96,8.156c-0.361,0.568 -0.664,0.923 0.351,12.152c0.975,10.789 0.644,10.995 1.353,11.525c0.455,0.34 1.005,0.536 1.46,0.876c-0.701,0.84 -1.485,1.258 -1.183,4.317c1.929,19.55 10.007,68.403 14.649,83.247c-6.768,0.346 -8.551,-0.93 -10.014,0.701c-0.838,0.934 -1.142,4.896 -1.555,7.609c-0.307,0.045 -0.617,-0.161 -0.925,-0.116c-0.491,0.072 -0.415,0.391 -2.15,0.495c-11.759,0.709 -11.717,1.095 -23.495,1.59c-10.932,0.46 -10.995,0.777 -33.476,-0.109c-1.375,-0.054 -16.094,-1.219 -16.884,-1.373c-2.158,-0.422 -2.295,-1.683 -2.386,-2.646c-0.598,-6.347 -1.156,-19.496 -1.228,-21.193c0.465,-0.27 1.018,-0.366 1.482,-0.636c0.192,-0.112 0.11,-0.224 2.283,-1.582c1.626,-1.015 4.266,-2.843 4.633,-3.096c10.802,-7.476 17.843,-15.662 21.058,-19.284c6.774,-7.633 11.166,-16.612 11.183,-16.791c0.019,-0.195 0.232,-2.365 -2.239,-0.998c-0.778,0.43 -0.686,0.554 -9.242,6.168c-6.261,4.108 -16.377,9.523 -20.945,11.64c-1.855,0.859 -2.301,1.168 -6.856,3.06c-1.665,0.691 -2.506,1.449 -2.633,1.522c-2.356,-0.24 -2.34,0.004 -4.047,0.677c-1.125,0.444 -6.876,2.71 -14.523,4.205c-5.514,1.078 -5.507,0.969 -11.081,1.532c-18.451,1.864 -32.491,-0.701 -41.088,-17.868c-10.246,-20.459 -13.744,-41.758 -15.231,-50.072c-4.483,-25.076 -3.341,-51.091 -3.332,-51.492c0.038,-1.791 0.275,-12.933 1.355,-22.346c0.19,-1.657 0.139,-1.636 0.104,-3.286c0.743,-2.28 0.706,-2.282 0.967,-4.548c0.056,-0.484 0.538,-3.006 0.568,-3.27c0.205,-1.81 0.426,-1.768 0.417,-1.925c-0.014,-0.239 -0.321,-0.365 -0.418,-0.584c0,0 -0.5,-1.356 -0.544,-1.474Z" style="fill:#ae6c4e;"/><path d="M592.838,335.565c-0.136,0.591 -0.271,1.182 -0.407,1.773c-8.23,1.036 -9.046,1.189 -9.826,1.334c-4.669,0.873 -13.661,2.087 -15.602,2.45c-18.947,3.544 -25.534,4.053 -26.529,4.908c-0.85,0.731 -0.283,2.775 -0.219,3.008c1.808,6.524 7.225,28.651 13.722,47.927c11.087,32.895 16.884,41.559 22.949,56.009c-0.307,0.356 -0.49,0.807 -0.797,1.163c-0.356,0.413 -0.808,0.733 -1.18,1.131c-0.827,0.884 -2.673,3.704 -2.89,4.036c-5.036,7.692 -5.671,13.396 -11.853,9.441c-2.028,-1.298 -6.043,-5.973 -9.649,-11.512c-9.079,-13.941 -6.071,-35.776 -10.641,-40.888c-5.301,-5.93 -16.977,-5.092 -38.806,-3.591c-49.667,3.415 -52.633,2.639 -72.623,3.068c-4.232,0.091 -4.589,0.591 -5.814,4.653c-4.611,15.279 -3.266,15.818 -4.322,16.708c-0.364,0.307 -0.904,0.352 -1.268,0.659c-0.807,-0.776 -2.715,-2.336 -5.615,-5.912c-10.345,-12.756 -7.394,-15.338 -12.641,-30.46c-2.101,-7.84 -3.717,-7.074 -7.456,-14.302c-7.853,-15.182 -3.489,-30.199 1.21,-36.011c10.942,-13.531 20.617,-11.533 21.951,-17.871c0.502,-2.385 -0.393,-12.332 15.15,-20.974c16.163,-8.987 29.517,-4.451 37.886,-4.152c2.482,0.089 4.45,0.108 4.486,0.11c10.85,0.382 11.575,-1.604 24.722,-6.925c7.714,-3.123 20.247,-4.379 30.085,-1.674c8.615,2.369 10.585,3.08 18.7,7.368c15.329,8.099 20.717,15.791 37.994,24.599c5.553,2.831 6.07,1.884 9.282,3.927Z" style="fill:#141540;"/><path d="M895.466,413.844c-0.135,2.335 -0.141,2.322 -1.376,11.137c-0.496,3.541 0.723,3.443 3.574,3.787c7.228,0.872 7.203,1.043 7.834,1.088c4.236,0.303 2.308,-3.195 4.886,-12.731c0.233,-0.037 0.469,0.126 0.701,0.09c0.7,-0.11 0.669,-0.562 3.393,-0.132c4.836,0.764 22.591,3.234 24.557,3.508c1.164,0.162 14.486,2.015 14.554,2.027c6.078,1.041 6.091,0.821 12.212,1.611c0.236,0.03 2.049,0.265 2.278,1.907c0.048,0.344 -0.215,3.057 -0.24,3.322c-1.17,12.085 -1.355,12.042 -2.247,18.987c-1.899,14.776 -3.634,21.269 -4.555,26.777c-1.561,9.34 -6.766,32.038 -12.021,49.199c-3.737,12.204 -4.547,15.74 -6.519,16.127c-1.334,0.262 -19.182,-3.489 -23.506,-4.152c-5.436,-0.833 -25.789,-4.61 -28.029,-5.026c-1.877,-0.348 -20.625,-3.828 -23.482,-4.259c-16.043,-2.422 -15.943,-2.877 -56.907,-9.416c-3.553,-0.567 -9.44,-0.05 -7.035,-3.465c0.968,-1.374 1.984,-3.147 2.145,-3.427c9.877,-17.221 11.33,-21.48 14.067,-27.582c10.192,-22.722 14.371,-46.171 15.126,-49.33c1.502,-6.283 4.866,-25.056 5.054,-25.53c0.566,-1.428 0.736,-2.41 7.528,-1.408c15.398,2.272 15.412,2.097 16.749,2.306c26.624,4.162 26.731,3.441 29.008,3.994c0.403,0.098 0.714,0.447 1.115,0.552c0.367,0.096 0.77,-0.058 1.137,0.038Z" style="fill:#90caf9;"/><path d="M230.762,235.191c6.444,-1.276 33.692,-7.641 43.47,-9.497c12.553,-2.384 13.034,-3.48 14.525,-1.707c0.622,0.739 0.953,5.406 5.866,27.827c0.035,0.161 6.698,32.93 8.124,42.424c1.433,9.535 1.864,9.443 3.182,19.014c2.391,17.364 3.088,18.314 0.83,19.135c-1.632,0.594 -1.79,-0.117 -21.293,4.236c-24.578,5.485 -39.897,8.061 -82.599,18.19c-16.883,4.005 -16.919,3.764 -33.663,8.342c-3.174,0.868 -2.94,-0.761 -2.876,-4.043c0.312,-16.104 -0.52,-28.765 -0.684,-31.261c-0.265,-4.038 0.242,-8.933 -4.238,-39.116c-1.161,-7.822 -1.29,-7.784 -2.588,-15.578c-1.225,-7.362 -1.197,-7.347 -2.732,-14.635c-1.133,-5.379 -1.282,-6.392 1.905,-7.198c1.205,-0.305 30.794,-6.71 57.241,-12.499c0.248,0.296 0.836,0.11 1.085,0.405c0.975,1.161 0.23,7.355 2.166,8.129c1.584,0.633 1.623,0.003 7.838,-0.838c1.809,-0.245 4.7,0.002 4.381,-3.598c-0.032,-0.363 -0.092,-0.353 -0.561,-4.519c-0.198,-1.761 0.519,-2.894 0.621,-3.214Z" style="fill:#f48fb1;"/><path d="M657.457,781.761c2.256,-0.11 4.668,-0.229 27.981,-3.754c22.786,-3.445 26.512,-4.345 27.694,-3.102c0.426,0.449 0.578,0.609 1.634,7.563c3.267,21.51 10.413,51.103 16.148,71.636c0.774,2.773 8.461,27.427 10.15,31.289c0.072,0.166 0.632,1.445 0.498,2.203c-0.253,1.433 -2.776,1.579 -11.478,3.025c-13.031,2.166 -12.994,2.278 -51.309,9.388c-5.972,1.108 -33.742,5.56 -34.627,5.677c-24.798,3.279 -24.713,3.767 -26.871,4.031c-2.896,0.354 -3.053,-1.476 -3.55,-3.139c-9.889,-33.132 -18.437,-79.653 -20.794,-97.288c-1.655,-12.384 -1.835,-12.347 -1.905,-13.43c-0.128,-1.982 -0.05,-2.237 1.774,-3.026c1.889,-0.818 42.452,-7.126 47.94,-8.127c0.299,0.175 0.703,-0.448 1.002,-0.273c1.116,0.655 2.413,4.311 2.556,4.716c1.322,3.728 2.356,5.891 3.98,10.226c1.038,2.77 1.142,4.037 5.828,2.973c0.551,-0.125 5.63,-1.278 6.862,-1.686c0.22,-0.073 1.854,-0.613 1.623,-2.403c-0.033,-0.259 -1.924,-5.108 -2.097,-5.551c-1.852,-4.75 -3.822,-8.86 -3.795,-9.08c0.053,-0.445 0.696,-0.672 0.749,-1.117l0.005,-0.752Z" style="fill:#a5d6a7;"/><path d="M373.546,660.057c0.023,0.145 0.285,1.815 0.285,1.815c-0.051,0.536 -1.348,2.933 -1.481,3.179c-1.591,2.939 -4.112,6.418 0.222,7.189c7.335,1.305 7.308,1.425 7.947,1.53c3.424,0.564 3.906,-2.848 4.814,-5.05c1.728,-4.19 2.927,-4.094 4.222,-4.898c6.206,1.921 46.372,11.328 50.009,12.842c2.349,0.978 1.858,1.692 0.929,4.074c-2.639,6.766 -3.878,12.564 -8.743,24.649c-4.696,11.661 -4.954,11.534 -6.657,15.66c-8.458,20.479 -23.219,46.139 -28.759,53.808c-0.638,0.883 -6.701,9.278 -8.242,10.836c-1.921,1.941 -2.506,1.547 -24.419,-4.195c-46.286,-12.13 -73.599,-21.042 -82.597,-23.723c-1.906,-0.568 -2.529,0.324 -2.958,0.5c-0.509,-0.627 -0.944,-1.312 -1.453,-1.939c-0.122,-0.15 -1.582,-0.191 -4.436,-1.076c-4.425,-1.373 -7.572,-1.572 -4.454,-5.01c2.551,-2.813 2.419,-2.91 9.677,-12.583c6.407,-8.539 11.711,-17.393 15.196,-23.014c12.04,-19.422 17.064,-33.272 19.604,-39.409c2.076,-5.017 4.708,-12.658 4.93,-13.225c4.876,-12.493 4.511,-12.609 5.022,-13.655c1.215,-2.486 3.981,-1.098 23.495,3.956c17.49,4.53 25.64,7.057 27.849,7.742Z" style="fill:#ce93d8;"/><path d="M371.484,831.493c0.059,0.443 0.299,0.849 0.358,1.292c0.338,2.53 -4.276,8.859 -2.176,10.698c0.941,0.824 10.593,1.229 10.722,1.198c2.233,-0.541 2.333,-1.818 4.059,-7.563c0.892,-2.969 1.293,-2.746 2.852,-4.578c0.891,0.184 0.839,0.366 2.078,0.429c2.055,0.104 19.135,0.964 25.685,1.403c24.47,1.642 25.623,0.603 25.993,2.823c0.07,0.422 -0.376,2.074 -0.424,2.251c-1.297,4.8 -2.176,9.503 -4.744,21.166c-0.695,3.154 -5.941,26.981 -9.5,39.239c-6.976,24.034 -12.795,35.235 -14.296,38.126c-3.307,6.367 -5.681,10.329 -7.112,10.866c-1.96,0.735 -18.048,1.434 -18.934,1.455c-31.181,0.728 -58.867,-2.206 -79.365,-4.358c-2.226,-0.186 -2.206,-0.192 -4.422,-0.393c-11.442,-1.15 -11.428,-1.071 -16.711,-1.521c-2.042,-0.174 -2.941,0.233 -2.803,-1.81c0.025,-0.37 0.909,-1.75 1.002,-1.894c2.915,-4.546 8.741,-17.503 10.33,-20.57c3.095,-5.978 9.244,-23.765 11.026,-30.127c2.633,-9.4 2.462,-9.427 5.088,-18.824c6.355,-22.74 8.565,-37.662 9.184,-40.136c0.332,-1.327 1.623,-1.555 1.813,-1.589c1.911,-0.338 45.465,2.558 49.217,2.55c0.363,-0.001 0.718,-0.133 1.081,-0.133Z" style="fill:#ffcc80;"/><path d="M608.604,334.802c0.282,-0.122 0.461,-0.422 0.742,-0.544c0.532,-0.23 3.234,-0.545 3.517,-0.578c4.588,-0.535 4.55,-1.039 33.493,-5.766c10.807,-1.765 11.638,-1.993 12.833,-0.513c0.55,0.682 1.173,3.546 1.242,3.863c1.099,5.051 1.277,4.985 2.393,10.033c1.878,8.497 12.322,39.474 18.715,53.798c4.897,10.971 4.906,10.955 5.324,11.912c2.163,4.956 8.928,19.183 11.47,23.866c1.517,2.796 2.742,5.104 0.689,5.675c-1.409,0.392 -1.438,0.19 -17.965,3.415c-21.806,4.254 -21.723,4.536 -38.036,7.561c-4.587,0.851 -4.692,0.323 -9.12,1.827c-0.315,0.107 -0.7,0.047 -0.969,0.243c-0.275,0.2 -0.327,0.602 -0.55,0.859c-0.116,0.134 -0.331,0.155 -0.447,0.29c-0.799,-0.332 -0.445,-0.779 -1.243,-1.109c-0.082,-0.034 -0.125,-0.052 -1.096,0.139c-3.877,0.763 -3.842,0.816 -7.764,1.381c-5.431,0.783 -16.835,3.104 -18.99,3.333c-1.251,0.133 -1.207,0.25 -2.431,0.503c-5.84,0.577 -18.714,3.094 -18.889,3.111c-2.099,0.2 -3.12,-2.816 -3.232,-2.946c-0.391,-0.448 -1.089,-0.597 -1.404,-1.101c-0.191,-0.305 0.233,-0.774 0.042,-1.08c-6.065,-14.451 -11.863,-23.115 -22.949,-56.009c-6.496,-19.275 -11.914,-41.403 -13.722,-47.927c-0.064,-0.232 -0.631,-2.277 0.219,-3.008c0.994,-0.855 7.582,-1.364 26.529,-4.908c1.941,-0.363 10.933,-1.577 15.602,-2.45c0.78,-0.146 1.596,-0.299 9.826,-1.334c2.022,1.68 2.08,1.607 2.179,1.81c2.932,6.024 1.605,11.083 6.989,9.672c3.717,-0.974 3.749,-0.737 6.678,-1.28c4.245,-0.787 3.205,-2.477 1.628,-6.488c-2.001,-5.087 -1.386,-5.213 -1.302,-6.251Z" style="fill:#ffcc80;"/><path d="M859.897,176.279c0.439,-0.111 0.513,-0.456 3.164,-0.601c11.852,-0.65 13.107,-0.059 35.76,-0.964c10.958,-0.438 11.92,-0.384 12.386,1.143c0.145,0.476 0.914,28.714 -0.07,43.604c-2.062,31.225 -4.357,37.21 -5.521,40.245c-0.224,-0.294 0.616,-0.744 0.391,-1.037c-0.133,-0.173 -0.763,-0.999 -2.724,-0.158c-0.431,0.185 -0.819,0.461 -1.254,0.635c-8.661,3.475 -20.289,1.176 -23.341,1.391c-4.469,0.316 -1.223,2.953 -2.556,18.106c-0.476,5.409 -1.271,5.328 -1.075,5.753c0.299,0.651 1.231,0.857 1.53,1.508c-5.989,1.808 -8.039,1.824 -25.76,3.376c-1.498,0.131 -24.289,1.84 -59.243,2.162c-15.124,0.139 -17.288,1.971 -17.225,-1.622c0.019,-1.071 6.969,-22.895 10.248,-56.979c3.827,-39.786 1.566,-46.056 2.514,-52.479c0.475,-3.213 2.01,-2.209 16.749,-2.817c2.091,-0.086 14.386,-0.211 15.637,-0.224c3.073,-0.031 3.068,0.098 20.101,-0.517c2.08,-0.075 2.068,-0.08 2.248,-0.08c1.509,-0.001 1.361,0.474 1.895,0.66c0.047,0.25 0.783,0.51 -0.061,3.997c-0.71,2.933 -2.646,8.157 1.51,8.06c2.245,-0.052 2.219,-0.203 4.469,-0.207c4.155,-0.006 6.33,1.082 7.474,-3.378c0.56,-2.182 1.476,-7.899 1.912,-8.607c0.224,-0.365 0.619,-0.603 0.843,-0.968Z" style="fill:#fee07f;"/><path d="M145.62,448.843c-0.001,0.023 0.236,1.341 -0.147,2.897c-0.536,2.182 -0.54,2.173 -0.586,2.363c-0.086,0.351 -0.185,0.699 -0.271,1.05c-0.064,0.259 -0.633,2.571 0.164,3.331c0.861,0.821 2.791,0.74 8.894,0.784c6.734,0.049 3.289,-5.794 6.808,-10.617c0.341,-0.088 0.615,-0.362 0.956,-0.45c0.452,-0.117 16.489,-0.158 17.923,-0.161c2.325,-0.006 25.176,-0.064 29.067,0.146c2.779,0.15 2.573,1.58 2.384,3.66c-1.505,16.493 -2.692,29.775 -6.712,50.289c-3.61,18.42 -6.364,24.264 -6.53,24.658c-0.197,0.024 -2.466,0.298 -2.466,0.298c-1.194,0.49 -1.502,2.704 -15.72,2.43c-3.124,-0.06 -8.792,-0.976 -9.924,-0.344c-1.445,0.806 -0.518,2.117 -1.398,12.014c-0.404,4.547 -0.409,4.529 -1.118,9.027c-0.179,1.134 0.11,1.968 0.112,2.011c-21.506,5.368 -57.363,3.058 -96.08,2.758c-4.246,-0.033 -2.132,-2.719 -1.548,-3.935c10.699,-22.26 14.918,-41.023 16.975,-49.006c2.645,-10.263 5.716,-31.67 6.507,-40.197c1.121,-12.083 0.382,-13.674 3.81,-14.111c0.912,-0.116 44.112,0.266 46.929,0.487c1.622,0.127 1.499,0.471 1.971,0.619Z" style="fill:#fff176;"/><path d="M527.929,0c3.238,0.066 17.532,-0.26 34.47,5.432c10.815,3.634 18.4,9.095 19.847,10.137c4.365,3.142 11.157,10.318 13.908,15.035c0.787,1.348 11.169,15.389 9.641,39.133c-1.462,22.717 -17.963,39.177 -19.235,40.712c-9.203,11.106 -30.3,28.158 -40.212,40.219c-4.31,5.245 -9.467,11.171 -13.812,21.928c-3.884,9.616 -3.303,20.734 -5.628,22.39c-0.596,0.425 -2.737,1.949 -9.062,1.251c-3.822,-0.422 -6.088,-2.498 -6.984,-16.977c-0.476,-7.687 0.735,-18.46 2.34,-23.541c2.224,-7.041 4.036,-15.073 18.197,-33.359c12.853,-16.596 18.978,-26.341 23.313,-40.319c3.768,-12.149 7.98,-42.127 -9.923,-60.426c-11.068,-11.313 -30.57,-11.126 -39.38,-3.446c-12.765,11.127 -15.862,42.966 -21.378,49.079c-0.928,1.028 -4.843,5.369 -16.44,5.431c-14.456,0.078 -23.84,-7.559 -22.473,-16.341c3.033,-19.474 20.57,-36.043 26.909,-40.252c1.701,-1.13 15.188,-11.157 37.946,-14.919c7.551,-1.248 10.051,-1.155 17.956,-1.166Z" style="fill:#383838;"/><path d="M86.182,710.78c-1.298,10.168 -2.348,12.048 0.443,12.599c0.534,0.105 6.916,0.201 8.147,-0.709c2.063,-1.524 1.847,-6.882 2.348,-9.323c0.162,-0.789 0.503,-1.534 0.666,-2.324c0.309,0.111 0.541,0.388 0.851,0.498c2.362,0.844 2.723,-0.071 22.637,0.577c18.604,0.605 20.424,-1.001 20.641,2.242c0.018,0.276 -0.327,3.121 -0.359,3.392c-3.734,30.783 -5.576,58.887 -16.341,72.173c-6.789,8.378 -15.778,13.94 -46.408,14.578c-2.499,0.052 -22.509,0.468 -31.245,-0.143c-26.557,-1.858 -28.401,-0.254 -28.465,-2.799c-0.025,-1.002 3.943,-6.274 6.337,-11.092c4.671,-9.403 4.788,-9.35 8.331,-19.242c5.344,-14.925 9.169,-45.732 9.692,-53.464c0.394,-5.812 -0.235,-7.549 4.074,-7.497c21.21,0.255 21.179,0.724 32.402,0.989c5.286,0.125 6.035,-0.431 6.249,-0.456Z" style="fill:#a5d6a7;"/><path d="M766.458,34.926c1.016,3.921 0.482,3.962 0.406,8.026c-0.081,4.311 1.795,3.899 6.852,4.072c2.746,0.094 3.351,-0.314 3.474,-4.069c0.134,-4.097 -0.01,-4.093 0.034,-4.446c0.084,-0.667 0.265,-0.603 0.337,-1.27c0.063,-0.593 -0.14,-0.569 -0.077,-1.157c1.936,0.738 1.958,0.81 15.19,1.571c22.152,1.274 22.465,1.017 23.216,2.118c1.3,1.906 -1.404,10.801 -0.051,45.64c0.372,9.581 3.053,27.696 3.81,31.24c0.161,0.752 0.508,1.491 0.469,2.258c-0.077,1.489 -2.588,1.448 -2.843,1.443c-1.275,-0.021 -23.65,-1.182 -25.706,-1.289c-0.147,-0.008 -23.152,-1.492 -33.536,-3.342c-7.182,-1.279 -19.652,-3.804 -27.147,-13.3c-0.862,-1.092 -5.481,-4.878 -6.437,-22.602c-0.149,-2.766 -0.555,-10.298 0.356,-34.626c0.097,-2.585 0.613,-10.805 0.72,-11.219c0.525,-2.02 3.003,-1.573 3.522,-1.544c1.52,0.085 1.486,0.181 18.966,1.478c3.009,0.223 2.989,0.348 10.067,0.963c5.328,0.463 5.638,0.731 8.379,0.055Z" style="fill:#f3ecd9;"/><path d="M757.127,667.635c0.279,-0.127 0.453,-0.429 0.732,-0.556c0.83,-0.376 11.542,-2.751 22.481,-4.47c2.97,-0.467 11.565,-2.977 13.434,-1.816c2.394,1.488 9.493,27.402 26.398,48.342c5.24,6.491 5.475,6.249 11.438,12.12c3.419,3.367 7.627,6.631 7.664,6.722c0.019,0.046 -0.083,1.527 -0.106,1.556c-0.132,0.164 -2.554,0.771 -8.315,3.134c-0.97,0.398 -6.1,2.502 -12.287,4.543c-1.25,0.412 -1.258,0.388 -1.347,0.459c-0.936,0.743 -0.566,1.059 -1.51,1.808c-0.365,-0.104 -0.807,-0.871 -2.822,-0.264c-1.662,0.502 -29.704,11.023 -43.646,12.407c-0.447,-0.548 -2.057,-1.462 -4.77,-8.089c-2.722,-6.65 -2.504,-9.802 -5.223,-9.676c-0.562,0.026 -8.085,2.702 -10.066,3.119c-8.195,1.726 -8.352,0.595 -8.999,0.919c-0.584,0.293 -0.833,1.061 -1.417,1.354c-2.73,-3.03 -4.047,-3.917 -10.607,-14.977c-0.143,-0.241 -5.218,-10.225 -5.67,-11.115c-0.578,-1.138 -1.434,-1.795 -7.591,-16.833c-0.609,-1.488 -7.185,-17.55 -7.063,-18.819c0.147,-1.528 1.828,-1.707 10.057,-3.053c6.265,-1.025 12.499,-2.856 21.106,-3.854c0.346,-0.04 0.729,0.022 1.034,-0.144c0.361,-0.197 0.013,-0.48 0.393,-0.633c0.437,-0.176 0.424,0.303 0.869,0.124c1.138,-0.095 1.125,-0.076 2.253,-0.188c1.628,-0.161 1.59,0.182 2.052,0.235c2.45,2.318 1.563,2.871 3.39,6.465c1.542,3.035 4.423,1.361 7.882,0.72c4.85,-0.898 2.082,-3.001 0.342,-7.599c-0.145,-0.384 -0.169,-0.93 -0.173,-1.012c-0.021,-0.482 0.108,-0.459 0.087,-0.929Z" style="fill:#fee07f;"/><path d="M520.091,279.102c-1.033,-0.053 -7.285,-0.376 -12.466,-3.442c-19.449,-11.508 -13.463,-32.192 -10.695,-37.051c3.948,-6.928 8.014,-10.975 16.399,-13.765c11.137,-3.706 21.56,1.883 24.822,4.435c12.043,9.422 13.818,27.169 5.753,38.452c-7.69,10.758 -17.668,11.324 -23.813,11.372Z" style="fill:#383838;"/><path d="M398.829,401.471c5.246,15.122 2.295,17.703 12.641,30.46c2.9,3.576 4.808,5.136 5.615,5.912c0.044,0.118 0.544,1.474 0.544,1.474c0.097,0.219 0.404,0.345 0.418,0.584c0.009,0.157 -0.212,0.115 -0.417,1.925c-0.03,0.264 -0.512,2.787 -0.568,3.27c-0.261,2.265 -0.224,2.268 -0.967,4.548c-0.414,0.076 -0.782,0.329 -1.196,0.405c-0.288,0.053 -0.589,-0.071 -0.878,-0.024c-1.195,0.193 -1.05,0.632 -14.468,4.419c-0.502,0.142 -29.606,8.853 -34.776,10.68c-0.44,0.155 -5.398,1.908 -5.517,1.883c-0.383,-0.081 -0.702,-0.421 -0.896,-0.761c-0.156,-0.273 -0.208,-0.654 -0.079,-0.941c0.44,-0.974 1.217,-0.382 8.423,-10.368c4.031,-5.586 19.229,-24.671 30.53,-50.02c0.077,-0.172 0.054,-0.166 0.733,-2.243l0.859,-1.204Z" style="fill:#90caf9;"/><path d="M631.935,450.744c-0.66,0.86 -0.621,0.871 -2.618,3.088c-9.534,10.585 -9.33,10.997 -11.759,21.519c-0.439,1.9 -3.035,13.149 -7.322,23.252c-0.519,1.223 -4.709,9.816 -7.112,13.759c-0.104,0.171 -0.067,0.168 -1.255,2.16c-4.442,7.447 -7.703,11.293 -10.201,14.449c-3.467,4.38 -7.282,6.444 -7.806,6.798c-0.455,-0.34 -1.005,-0.536 -1.46,-0.876c-0.709,-0.53 -0.378,-0.736 -1.353,-11.525c-1.015,-11.23 -0.713,-11.584 -0.351,-12.152c1.212,-1.905 5.923,-0.502 12.96,-8.156c2.833,-3.081 6.265,-7.873 9.156,-19.938c0.802,-3.348 2.892,-16.993 -0.997,-24.672c-0.36,-0.71 -0.815,-1.374 -1.114,-2.111c-0.173,-0.426 -0.119,-0.922 -0.292,-1.347c1.224,-0.253 1.18,-0.37 2.431,-0.503c2.155,-0.23 13.559,-2.55 18.99,-3.333c3.923,-0.566 3.887,-0.618 7.764,-1.381c0.971,-0.191 1.015,-0.173 1.096,-0.139c0.797,0.331 0.444,0.778 1.243,1.109Z" style="fill:#151541;"/><path d="M295.551,1024.378l-12.289,0c0.294,-1.121 0.454,-1.064 0.734,-2.799c0.101,-0.628 0.629,-3.906 1.418,-7.829c3.524,-17.53 6.789,-29.834 7.134,-31.181c2.909,-11.361 2.751,-11.386 3.02,-12.368c2.014,-7.34 2.152,-7.278 4.219,-14.593c2.406,-8.516 1.851,-8.626 1.918,-8.872c0.114,-0.422 0.44,-0.767 0.554,-1.189c2.216,0.201 2.195,0.207 4.422,0.393l0.076,0.796c-1.751,8.937 -1.963,8.89 -3.04,17.923c-0.341,2.858 -2.025,10.626 -4.321,25.728c-0.66,4.339 -3.321,23.778 -3.396,24.544c-0.061,0.621 -0.571,5.852 -0.578,7.772c-0.002,0.56 0.13,1.115 0.129,1.675Z" style="fill:#222f9a;"/><path d="M503.938,588.294c0.127,-0.074 0.968,-0.831 2.633,-1.522c4.556,-1.892 5.002,-2.201 6.856,-3.06c4.568,-2.116 14.685,-7.532 20.945,-11.64c8.556,-5.614 8.464,-5.737 9.242,-6.168c2.471,-1.367 2.258,0.803 2.239,0.998c-0.018,0.179 -4.409,9.158 -11.183,16.791c-3.215,3.622 -10.256,11.808 -21.058,19.284c-0.367,0.254 -3.007,2.081 -4.633,3.096c-2.173,1.357 -2.091,1.47 -2.283,1.582c-0.465,0.27 -1.018,0.366 -1.482,0.636c-0.824,-14.592 -0.683,-14.58 -1.276,-19.997Z" style="fill:#864733;"/><path d="M895.466,413.844c2.067,-8.994 1.835,-17.452 3.406,-18.929c1.107,-1.04 6.233,0.134 7.732,0.278c4.477,0.429 6.468,-0.302 5.997,4.179c-0.217,2.065 -2.193,15.215 -2.213,15.599c-0.038,0.717 0.034,1.437 -0.004,2.154c-2.577,9.536 -0.649,13.034 -4.886,12.731c-0.631,-0.045 -0.606,-0.215 -7.834,-1.088c-2.852,-0.344 -4.07,-0.246 -3.574,-3.787c1.235,-8.816 1.241,-8.802 1.376,-11.137Z" style="fill:#c6c8c8;"/><path d="M905.616,259.705c-2.115,5.146 -7.109,19.959 -29.03,26.197c-0.299,-0.651 -1.231,-0.857 -1.53,-1.508c-0.195,-0.425 0.599,-0.344 1.075,-5.753c1.333,-15.153 -1.913,-17.79 2.556,-18.106c3.052,-0.216 14.68,2.084 23.341,-1.391c0.435,-0.174 0.823,-0.45 1.254,-0.635c1.961,-0.841 2.592,-0.015 2.724,0.158c0.224,0.294 -0.616,0.744 -0.391,1.037Z" style="fill:#d9b564;"/><path d="M230.762,235.191c-0.102,0.321 -0.819,1.453 -0.621,3.214c0.469,4.166 0.529,4.156 0.561,4.519c0.318,3.599 -2.572,3.353 -4.381,3.598c-6.215,0.841 -6.254,1.471 -7.838,0.838c-1.936,-0.774 -1.192,-6.968 -2.166,-8.129c-0.248,-0.296 -0.836,-0.11 -1.085,-0.405c0.221,-0.268 0.665,-0.281 0.885,-0.55c0.978,-1.19 -1.043,-9.198 -1.717,-18.849c-0.312,-4.458 -2.028,-6.752 1.842,-7.75c0.72,-0.185 9.705,-1.767 10.031,-1.756c1.748,0.06 1.882,1.569 1.9,1.776c0.071,0.797 0.034,0.792 0.591,9.983c0.044,0.718 0.48,7.915 0.541,8.977c0.015,0.268 0.167,2.928 0.307,3.337c0.091,0.266 0.361,0.547 0.401,0.588c0.345,0.359 0.412,0.258 0.749,0.609Z" style="fill:#efecdf;"/><path d="M608.604,334.802c-0.084,1.038 -0.698,1.164 1.302,6.251c1.577,4.011 2.617,5.701 -1.628,6.488c-2.929,0.543 -2.961,0.306 -6.678,1.28c-5.385,1.411 -4.057,-3.648 -6.989,-9.672c-0.099,-0.204 -0.157,-0.131 -2.179,-1.81c0.136,-0.591 0.271,-1.182 0.407,-1.773l1.118,-1.037l-0.12,-1.675l-1.117,-0.273c-0.14,-0.204 -0.544,-0.083 -0.685,-0.287c-0.395,-0.573 0.091,-0.764 -3.298,-8.044c-2.191,-4.708 -2.667,-5.98 0.531,-6.826c1.645,-0.435 8.912,-1.899 10.13,-1.731c1.77,0.245 2.481,3.381 5.705,12.099c0.431,1.167 0.409,1.156 0.794,2.351c1.129,3.496 1.62,3.223 2.708,4.66Z" style="fill:#d9e4e9;"/><path d="M396.291,653.334c-3.487,1.981 -4.717,2.769 -6.642,7.506c-0.886,2.179 -0.194,2.284 -0.095,2.983c-1.294,0.804 -2.493,0.708 -4.222,4.898c-0.908,2.202 -1.39,5.614 -4.814,5.05c-0.639,-0.105 -0.612,-0.225 -7.947,-1.53c-4.333,-0.771 -1.812,-4.25 -0.222,-7.189c0.134,-0.247 1.431,-2.644 1.481,-3.179c0,-0 -0.262,-1.669 -0.285,-1.815c1.797,-1.737 1.83,-1.69 1.941,-1.875c1.684,-2.835 5.28,-10.146 5.719,-11.039c1.044,-2.122 1.862,-4.905 3.741,-5.03c0.312,-0.021 10.851,1.967 11.307,2.844c1.346,2.585 -1.999,6.204 -1.661,6.846c0.356,0.674 1.343,0.856 1.698,1.53Z" style="fill:#dae4e9;"/><path d="M657.457,781.761l-0.005,0.752c-0.053,0.445 -0.696,0.672 -0.749,1.117c-0.026,0.22 1.943,4.33 3.795,9.08c0.172,0.442 2.063,5.292 2.097,5.551c0.231,1.79 -1.403,2.33 -1.623,2.403c-1.232,0.408 -6.31,1.561 -6.862,1.686c-4.686,1.064 -4.79,-0.203 -5.828,-2.973c-1.624,-4.335 -2.658,-6.498 -3.98,-10.226c-0.143,-0.404 -1.441,-4.061 -2.556,-4.716c-0.299,-0.175 -0.703,0.448 -1.002,0.273c0.216,-0.334 0.302,-0.246 0.511,-0.57c0.03,-0.047 0.201,-0.312 0.27,-0.64c0.325,-1.555 -0.171,-1.485 -0.798,-3.21c-0.194,-0.533 -2.221,-6.113 -2.308,-6.706c-0.149,-1.012 0.054,-1.016 0.915,-1.601c0.752,-0.511 10.429,-2.082 11.5,-1.848c2.301,0.503 3.991,8.694 5.172,10.399c0.796,1.149 1.225,1.037 1.451,1.229Z" style="fill:#dae4ea;"/><path d="M197.57,526.793c-0.324,0.659 -3.769,8.593 -10.103,14.706c-8.078,7.797 -18.032,10.031 -20.412,10.73c-0.002,-0.043 -0.291,-0.877 -0.112,-2.011c0.709,-4.498 0.714,-4.48 1.118,-9.027c0.88,-9.897 -0.047,-11.208 1.398,-12.014c1.132,-0.631 6.801,0.284 9.924,0.344c14.218,0.274 14.526,-1.94 15.72,-2.43c0,0 2.269,-0.274 2.466,-0.298Z" style="fill:#ddb966;"/><path d="M859.897,176.279c-0.224,0.365 -0.619,0.603 -0.843,0.968c-0.435,0.708 -1.351,6.425 -1.912,8.607c-1.144,4.46 -3.319,3.372 -7.474,3.378c-2.25,0.003 -2.224,0.154 -4.469,0.207c-4.156,0.097 -2.22,-5.127 -1.51,-8.06c0.844,-3.487 0.107,-3.747 0.061,-3.997c0.233,-0.605 0.684,-1.109 0.916,-1.714c0.065,-0.169 -0.095,-0.365 -0.049,-0.54c0.045,-0.175 0.24,-0.28 0.305,-0.449c0.495,-1.281 2.51,-13.608 3.321,-14.648c0.937,-1.201 1.464,-1.142 9.246,-1.071c2.174,0.02 4.914,-0.467 3.97,4.556c-0.851,4.526 -1.138,4.451 -1.935,8.992c-0.354,2.015 -0.347,2.082 -0.329,2.264c0.085,0.86 0.618,0.649 0.703,1.507Z" style="fill:#d8e4e8;"/><path d="M371.484,831.493c0.268,-0.343 0.979,-0.3 1.755,-2.247c5.292,-13.283 4.035,-15.575 8.325,-15.307c9.603,0.598 10.221,0.912 10.421,1.992c0.3,1.621 -5.028,13.42 -4.886,15.754c0.018,0.292 0.182,0.563 0.2,0.856c-1.559,1.832 -1.959,1.608 -2.852,4.578c-1.726,5.745 -1.826,7.022 -4.059,7.563c-0.129,0.031 -9.781,-0.374 -10.722,-1.198c-2.1,-1.839 2.514,-8.168 2.176,-10.698c-0.059,-0.443 -0.299,-0.849 -0.358,-1.292Z" style="fill:#dae3e8;"/><path d="M145.62,448.843c1.491,-2.854 1.381,-2.885 2.192,-6.027c2.597,-10.063 2.386,-10.137 2.839,-10.917c0.933,-1.603 3.089,-1.111 8.604,-1.312c3.525,-0.128 4.958,-0.139 4.282,3.335c-0.245,1.257 -3.17,13.174 -3.188,13.439c-0.028,0.431 0.161,0.858 0.132,1.288c-3.52,4.823 -0.075,10.666 -6.808,10.617c-6.103,-0.044 -8.032,0.037 -8.894,-0.784c-0.797,-0.76 -0.228,-3.072 -0.164,-3.331c0.086,-0.351 0.186,-0.698 0.271,-1.05c0.046,-0.189 0.049,-0.181 0.586,-2.363c0.382,-1.556 0.145,-2.874 0.147,-2.897Z" style="fill:#dae4e8;"/><path d="M738.767,739.247c0.584,-0.293 0.833,-1.061 1.417,-1.354c0.647,-0.324 0.804,0.807 8.999,-0.919c1.981,-0.417 9.503,-3.093 10.066,-3.119c2.719,-0.126 2.501,3.026 5.223,9.676c2.712,6.626 4.323,7.54 4.77,8.089c-8.014,0.583 -15.124,-0.38 -23.546,-5.866c-2.598,-1.692 -6.42,-5.942 -6.928,-6.507Z" style="fill:#d3b062;"/><path d="M766.458,34.926c0.639,-6.931 -0.319,-14.693 -0.073,-15.322c0.688,-1.758 2.985,-1.462 8.391,-0.886c3.545,0.378 2.774,1.693 2.746,5.236c-0.027,3.363 -0.046,3.344 -0.155,6.712c-0.096,2.961 -0.143,2.953 0.117,5.415c-0.063,0.588 0.141,0.564 0.077,1.157c-0.071,0.667 -0.253,0.603 -0.337,1.27c-0.044,0.353 0.1,0.35 -0.034,4.446c-0.123,3.755 -0.728,4.164 -3.474,4.069c-5.056,-0.174 -6.933,0.239 -6.852,-4.072c0.076,-4.063 0.611,-4.104 -0.406,-8.026Z" style="fill:#dee3e2;"/><path d="M86.182,710.78c1.563,-6.089 1.513,-12.718 2.982,-13.947c1.393,-1.166 8.314,-0.342 8.613,-0.245c1.507,0.487 1.968,2.173 0.057,12.195c-0.309,1.622 -0.035,1.614 -0.049,2.241c-0.162,0.789 -0.503,1.534 -0.666,2.324c-0.502,2.441 -0.286,7.799 -2.348,9.323c-1.231,0.909 -7.614,0.814 -8.147,0.709c-2.791,-0.551 -1.741,-2.431 -0.443,-12.599Z" style="fill:#dfe7e9;"/><path d="M757.127,667.635c0.021,0.47 -0.109,0.448 -0.087,0.929c0.004,0.082 0.028,0.628 0.173,1.012c1.74,4.598 4.508,6.701 -0.342,7.599c-3.46,0.641 -6.34,2.315 -7.882,-0.72c-1.826,-3.594 -0.94,-4.147 -3.39,-6.465c-2.092,-4.669 -1.991,-4.697 -4.198,-9.303c-1.243,-2.595 -3.245,-4.442 -1.478,-5.876c0.763,-0.62 5.801,-1.949 5.834,-1.956c3.108,-0.583 2.588,1.031 8.017,10.001c2.51,4.147 2.734,3.986 3.352,4.778Z" style="fill:#dbe5eb;"/><path d="M783.754,1024.378l-10.055,0c-0.006,-0.499 0.527,-0.553 -1.273,-10.581c-1.601,-8.916 -1.048,-8.974 -2.832,-21.305c-0.079,-0.545 -0.884,-6.107 -0.764,-6.847c0.193,-1.193 0.454,-1.462 1.542,-0.967c0.22,0.1 0.161,0.461 0.292,0.664c0.106,0.166 0.494,-0.018 1.548,3.941c2.28,8.57 2.805,8.396 7.076,22.247c0.277,0.897 3.07,9.957 3.578,11.172c0.244,0.583 0.645,1.092 0.889,1.675Z" style="fill:#2633a8;"/><path d="M660.869,420.515c0.31,0.205 0.803,-0.141 1.113,0.064c0.23,0.152 0.049,0.571 0.199,0.803c0.143,0.221 0.764,0.179 0.704,1.414c-0.017,0.348 -0.467,0.799 -0.202,1.025c0.39,0.332 1.047,0.271 1.534,0.11c0.441,-0.146 0.583,-0.783 1.015,-0.954c0.436,-0.174 0.941,0.027 1.409,-0.011c0.973,-0.078 1.006,-0.119 1.059,-0.187c0.396,-0.506 -0.39,-0.668 0.012,-1.18c1.016,0.923 1.02,0.907 1.097,0.997c0.572,0.669 0.454,0.725 1.02,1.388c-1.793,0.984 -1.701,1.399 -7.861,2.092c-2.914,0.328 -5.114,-0.424 -5.58,-0.464c-0.209,-0.018 -0.424,0.175 -0.622,0.104c-0.822,-0.293 -3.419,-3.356 -0.77,-5.533c1.265,-1.04 3.081,-0.488 5.874,0.333Z" style="fill:#fad97a;"/><path d="M664.194,417.176c0.269,0.363 0.295,0.334 3.517,4.421c-0.401,0.513 0.385,0.674 -0.012,1.18c-0.053,0.068 -0.085,0.109 -1.059,0.187c-0.468,0.038 -0.973,-0.163 -1.409,0.011c-0.431,0.172 -0.574,0.808 -1.015,0.954c-0.487,0.161 -1.144,0.223 -1.534,-0.11c-0.265,-0.226 0.185,-0.677 0.202,-1.025c0.061,-1.235 -0.561,-1.193 -0.704,-1.414c-0.15,-0.232 0.031,-0.651 -0.199,-0.803c-0.31,-0.205 -0.803,0.141 -1.113,-0.064c0.331,-0.406 0.747,-0.736 1.078,-1.142c0.176,-0.216 0.256,-0.5 0.435,-0.713c0.164,-0.195 0.424,-0.296 0.582,-0.496c0.14,-0.178 0.116,-0.472 0.293,-0.614c0.263,-0.211 0.676,-0.163 0.939,-0.373Z" style="fill:#e8c46f;"/></g></svg>